<svg width="100" height="100" fill="none" xmlns="http://www.w3.org/2000/svg"><path d="M84.123.063c-4.647 1.77-19.341 9.741-22.35 30.32-.192 1.3-1.232 2.336-2.59 2.436-8.73.647-38.913 5.803-34.882 50.572 0 0-7.568-2.956-6.134-27.586 1.225-21.05-2.96-33.862-11.066-39.01-2.217-1.409-5.232-.626-6.516 1.612-1.04 1.812-.678 4.106.963 5.444C5.408 27 11.336 34.728 8.85 51.661 5.864 71.993 8.02 88.65 20.164 96.435 24.07 98.941 28.786 100 33.48 100h24.564c.592 0 1.06-.488.987-1.053-.227-1.773-1.196-5.162-5.253-5.162h-4.78s10.542-7.623 8.101-17.4c-.091-.368 5.998 22.662 5.998 22.662 0 .526.442.953.99.953h16.746a.953.953 0 0 0 .948-1.162c-.45-1.923-1.908-5.597-6.493-5.947-.42-.032-.783-.285-.86-.685-.482-2.524-1.728-11.78 4.203-18.677 6.928-8.056 7.564-13.58 8.522-20.948.78-6.014-.83-16.33-1.915-19.909-.206-.676.269-1.353.993-1.447l7.394-.959a4.305 4.305 0 0 0 2.47-1.2c1.385-1.37 3.608-3.909 3.9-6.362a1.018 1.018 0 0 0-.266-.776l-2.638-2.994c-.648-.736-1.078-1.624-1.202-2.583-.309-2.444-1.781-7.565-8.604-8.841-.954-.18-1.625-1.012-1.667-1.944L85.403.869c-.029-.618-.68-1.033-1.275-.806h-.005Z" fill="#FFB72D"/></svg>